<svg width="36" height="20" viewBox="0 0 36 20" fill="none" xmlns="http://www.w3.org/2000/svg">
<g clip-path="url(#clip0_31_64)">
<path fill-rule="evenodd" clip-rule="evenodd" d="M25.9986 17.2939L24.8544 4.39545C24.8299 4.10869 24.5888 3.892 24.307 3.892H21.9529C21.9201 1.74012 20.1629 0.00146484 18.005 0.00146484C15.8472 0.00146484 14.09 1.74012 14.0573 3.892H11.7032C11.4174 3.892 11.1802 4.10869 11.1557 4.39545L10.0113 17.2939C10.0113 17.3108 10.0073 17.3265 10.0073 17.3434C10.0073 18.8122 11.3519 20.0064 13.0069 20.0064H23.003C24.6583 20.0064 26.0028 18.8122 26.0028 17.3434C26.0028 17.3265 26.0028 17.3108 25.9986 17.2939V17.2939ZM18.005 1.1062C19.5539 1.1062 20.8168 2.35028 20.8493 3.892H15.1606C15.1933 2.35028 16.4561 1.1062 18.005 1.1062V1.1062ZM23.003 18.902H13.0069C11.9688 18.902 11.1272 18.2146 11.1109 17.368L12.206 5.00079H14.0532V6.67782C14.0532 6.98472 14.2984 7.23041 14.6049 7.23041C14.9115 7.23041 15.1567 6.98472 15.1567 6.67782V5.00079H20.8493V6.67782C20.8493 6.98472 21.0946 7.23041 21.4011 7.23041C21.7075 7.23041 21.9529 6.98472 21.9529 6.67782V5.00079H23.8001L24.8993 17.368C24.8829 18.2146 24.0371 18.902 23.003 18.902V18.902Z" fill="#FE3E57"/>
</g>
<defs>
<clipPath id="clip0_31_64">
<rect width="36" height="20" fill="white"/>
</clipPath>
</defs>
</svg>
