<?xml version="1.0" encoding="UTF-8"?>
<svg xmlns="http://www.w3.org/2000/svg" xmlns:xlink="http://www.w3.org/1999/xlink" width="12px" height="12px" viewBox="0 0 12 12" version="1.1">
<g id="surface1">
<path style=" stroke:none;fill-rule:nonzero;fill:rgb(100%,100%,100%);fill-opacity:1;" d="M 11.785156 2.851562 L 10.503906 1.570312 C 10.222656 1.285156 9.757812 1.285156 9.476562 1.570312 L 4.886719 6.160156 L 2.523438 3.792969 C 2.238281 3.511719 1.777344 3.511719 1.496094 3.792969 L 0.214844 5.074219 C 0.0742188 5.210938 0 5.394531 0 5.589844 C 0 5.785156 0.0742188 5.964844 0.210938 6.105469 L 4.679688 10.570312 C 4.738281 10.628906 4.8125 10.652344 4.886719 10.640625 C 4.898438 10.640625 4.910156 10.644531 4.925781 10.644531 C 4.984375 10.644531 5.046875 10.617188 5.097656 10.570312 L 11.785156 3.882812 C 11.921875 3.742188 12 3.5625 12 3.367188 C 12 3.171875 11.925781 2.988281 11.785156 2.851562 Z M 11.441406 3.539062 L 4.886719 10.09375 L 0.554688 5.761719 C 0.511719 5.714844 0.484375 5.65625 0.484375 5.589844 C 0.484375 5.523438 0.511719 5.464844 0.554688 5.417969 L 1.839844 4.136719 C 1.886719 4.089844 1.945312 4.066406 2.007812 4.066406 C 2.070312 4.066406 2.132812 4.089844 2.179688 4.136719 L 4.714844 6.675781 C 4.808594 6.765625 4.96875 6.765625 5.058594 6.675781 L 9.820312 1.914062 C 9.914062 1.820312 10.066406 1.820312 10.160156 1.914062 L 11.445312 3.195312 C 11.488281 3.242188 11.515625 3.300781 11.515625 3.367188 C 11.515625 3.429688 11.488281 3.492188 11.441406 3.539062 Z M 11.441406 3.539062 "/>
</g>
</svg>
