<svg width="24" height="20" viewBox="0 0 24 20" fill="none" xmlns="http://www.w3.org/2000/svg">
<path fill-rule="evenodd" clip-rule="evenodd" d="M17.8939 -0.0013C15.4696 -0.0013 13.9346 1.42322 13.0738 2.61818C12.8506 2.9287 12.6606 3.23922 12.5011 3.53202C12.3416 3.23922 12.1517 2.9287 11.9284 2.61818C11.0676 1.42322 9.53272 -0.0013 7.10829 -0.0013C5.38447 -0.0013 3.81009 0.69666 2.67507 1.9637C1.59257 3.17236 0.996458 4.791 0.996458 6.52122C0.996458 8.40528 1.74387 10.1568 3.34878 12.0344C4.78318 13.7131 6.84667 15.4433 9.23621 17.4466C10.1267 18.1933 11.0473 18.9653 12.0276 19.8095L12.057 19.8341C12.1842 19.944 12.3426 19.9988 12.5011 19.9988C12.6596 19.9988 12.818 19.944 12.9451 19.8341L12.9745 19.8095C13.9548 18.9653 14.8756 18.1933 15.7662 17.4466C18.1556 15.4433 20.2191 13.7131 21.6535 12.0344C23.2583 10.1568 24.0058 8.40528 24.0058 6.52122C24.0058 4.791 23.4096 3.17236 22.327 1.9637C21.1922 0.69626 19.6178 -0.0013 17.8939 -0.0013ZM14.8916 16.4373C14.1241 17.0805 13.3341 17.743 12.5011 18.4555C11.6682 17.743 10.8782 17.0809 10.1105 16.4373C5.43401 12.5161 2.34456 9.92604 2.34456 6.52122C2.34456 5.114 2.82121 3.80628 3.68661 2.8401C4.56196 1.86302 5.7771 1.32536 7.10829 1.32536C8.95662 1.32536 10.1514 2.445 10.8283 3.385C11.4353 4.22796 11.7521 5.07816 11.8602 5.40398C11.9505 5.67746 12.2093 5.86192 12.5011 5.86192C12.7929 5.86192 13.0517 5.67746 13.1421 5.40398C13.2501 5.07816 13.5669 4.22796 14.174 3.385C14.8508 2.445 16.0457 1.32536 17.8939 1.32536C19.2251 1.32536 20.4403 1.86302 21.3156 2.8401C22.1811 3.80628 22.6576 5.114 22.6576 6.52122C22.6576 9.92604 19.5682 12.5161 14.8916 16.4373Z" fill="#29282D"/>
</svg>
