<svg width="24" height="20" viewBox="0 0 24 20" fill="none" xmlns="http://www.w3.org/2000/svg">
<g clip-path="url(#clip0_0_663)">
<path fill-rule="evenodd" clip-rule="evenodd" d="M18.7087 18.219L14.0275 13.2693C15.2315 11.8129 15.8911 9.98162 15.8911 8.07502C15.8911 3.62182 12.3281 -0.0017 7.94721 -0.0017C3.56835 -0.0017 0.005339 3.62182 0.005339 8.07502C0.005339 12.5294 3.56835 16.1533 7.94721 16.1533C9.59137 16.1533 11.1596 15.6491 12.4982 14.6902L17.2163 19.6802C17.4136 19.8896 17.6782 20.0044 17.9635 20.0044C18.2317 20.0044 18.4858 19.8993 18.6802 19.7096C19.0932 19.3069 19.1048 18.6391 18.7087 18.219V18.219ZM7.94721 2.10588C11.1846 2.10588 13.8187 4.78456 13.8187 8.07502C13.8187 11.3675 11.1846 14.0458 7.94721 14.0458C4.71137 14.0458 2.07774 11.3675 2.07774 8.07502C2.07774 4.78456 4.71137 2.10588 7.94721 2.10588V2.10588Z" fill="#29282D"/>
</g>
<defs>
<clipPath id="clip0_0_663">
<rect width="24" height="20" fill="white"/>
</clipPath>
</defs>
</svg>
