<svg width="20" height="20" viewBox="0 0 20 20" fill="none" xmlns="http://www.w3.org/2000/svg">
<path fill-rule="evenodd" clip-rule="evenodd" d="M17.8955 5.26146C17.4812 5.46162 17.3078 5.95982 17.5082 6.37466C18.0558 7.50558 18.3332 8.72428 18.3332 9.9994C18.3332 14.5939 14.595 18.3323 9.99996 18.3323C5.40492 18.3323 1.6666 14.5939 1.6666 9.9994C1.6666 5.40404 5.40492 1.66612 9.99996 1.66612C11.904 1.66612 13.6927 2.28756 15.1733 3.46318C15.5325 3.75034 16.0575 3.69034 16.3441 3.32948C16.6308 2.96942 16.5707 2.44504 16.2102 2.15908C14.4575 0.76598 12.2519 -0.00126 9.99996 -0.00126C4.4862 -0.00126 0 4.48536 0 9.9994C0 15.5126 4.4862 19.9988 9.99996 19.9988C15.5136 19.9988 19.9999 15.5126 19.9999 9.9994C19.9999 8.47096 19.6663 7.00738 19.0084 5.6485C18.8084 5.23366 18.3083 5.06088 17.8955 5.26146V5.26146ZM9.99996 3.33188C9.5399 3.33188 9.1666 3.70564 9.1666 4.16558V9.9994C9.1666 10.4585 9.5399 10.8323 9.99996 10.8323H14.1666C14.6267 10.8323 15 10.4585 15 9.9994C15 9.53904 14.6267 9.1657 14.1666 9.1657H10.8332V4.16558C10.8332 3.70564 10.4599 3.33188 9.99996 3.33188V3.33188Z" fill="#8D8D8D"/>
</svg>
