<svg width="20" height="20" viewBox="0 0 20 20" fill="none" xmlns="http://www.w3.org/2000/svg">
<path fill-rule="evenodd" clip-rule="evenodd" d="M17.071 12.9282C15.9819 11.8387 14.6855 11.0324 13.271 10.5447C14.786 9.5012 15.7811 7.75488 15.7811 5.7802C15.7811 2.59284 13.1877 -0.00126 9.99992 -0.00126C6.81218 -0.00126 4.21872 2.59284 4.21872 5.7802C4.21872 7.75488 5.214 9.5012 6.72898 10.5447C5.31448 11.0324 4.0181 11.8387 2.92884 12.9282C1.04012 14.8167 -4e-05 17.3274 -4e-05 19.9988H1.56242C1.56242 15.3467 5.34744 11.5617 9.99992 11.5617C14.6524 11.5617 18.4374 15.3467 18.4374 19.9988H20C20 17.3274 18.9597 14.8167 17.071 12.9282ZM5.78118 5.7802C5.78118 3.45392 7.6738 1.5618 9.99992 1.5618C12.3262 1.5618 14.2187 3.45392 14.2187 5.7802C14.2187 8.10608 12.3262 9.9994 9.99992 9.9994C7.6738 9.9994 5.78118 8.10608 5.78118 5.7802Z" fill="#8D8D8D"/>
</svg>
