<svg width="10" height="9" viewBox="0 0 10 9" fill="none" xmlns="http://www.w3.org/2000/svg">
<path fill-rule="evenodd" clip-rule="evenodd" d="M9.8363 4.62446L6.22694 1.15156C6.12395 1.05248 5.98662 0.997304 5.84025 0.997304C5.69365 0.997304 5.55632 1.05248 5.45332 1.15156L5.12568 1.46691C5.02268 1.56558 4.96603 1.69809 4.96603 1.83905C4.96603 1.98042 5.02268 2.11694 5.12568 2.21562L7.23128 4.24668H0.54152C0.23997 4.24668 0.00159 4.47302 0.00159 4.76341V5.20965C0.00159 5.49963 0.23997 5.75014 0.54152 5.75014H7.2552L5.12568 7.79207C5.0228 7.89075 4.96603 8.01963 4.96603 8.16059C4.96603 8.30074 5.0228 8.43164 5.12568 8.53072L5.45344 8.84526C5.55643 8.94434 5.69365 8.9983 5.84025 8.9983C5.98673 8.9983 6.12406 8.94354 6.22706 8.84446L9.83641 5.37156C9.93964 5.27248 9.9964 5.13958 9.99606 4.99821C9.9964 4.85685 9.93964 4.72394 9.8363 4.62446" fill="#8D8D8D"/>
</svg>
