<svg width="20" height="21" viewBox="0 0 20 21" fill="none" xmlns="http://www.w3.org/2000/svg">
<path fill-rule="evenodd" clip-rule="evenodd" d="M9.99996 0.550557C12.671 0.550557 15.1822 1.59071 17.0709 3.47928C18.9597 5.36806 19.9999 7.87935 19.9999 10.5503C19.9999 13.2212 18.9597 15.7325 17.0709 17.6217C15.1822 19.5101 12.671 20.5504 9.99996 20.5504C7.3288 20.5504 4.8175 19.5101 2.92878 17.6217C1.04004 15.7325 -0.00012 13.2212 -0.00012 10.5503C-0.00012 7.87935 1.04004 5.36806 2.92878 3.47928C4.8175 1.59071 7.3288 0.550557 9.99996 0.550557ZM1.17176 10.5503C1.17176 15.4181 5.1321 19.3784 9.99996 19.3784C14.8677 19.3784 18.828 15.4181 18.828 10.5503C18.828 5.68243 14.8677 1.72217 9.99996 1.72217C5.1321 1.72217 1.17176 5.68243 1.17176 10.5503ZM8.77464 12.5159L13.9489 7.34183C14.1776 7.11289 14.5486 7.11289 14.7774 7.34183C15.0063 7.57077 15.0063 7.94174 14.7774 8.17047L9.18892 13.7589C9.0746 13.8732 8.92456 13.9304 8.77464 13.9304C8.62472 13.9304 8.4748 13.8732 8.36036 13.7589L5.22228 10.6209C4.99352 10.3921 4.99352 10.0212 5.22228 9.79222C5.45116 9.56327 5.82218 9.56327 6.05094 9.79222L8.77464 12.5159Z" fill="#FE3E57"/>
</svg>
