<svg width="15" height="15" viewBox="0 0 15 15" fill="none" xmlns="http://www.w3.org/2000/svg">
<path fill-rule="evenodd" clip-rule="evenodd" d="M11.0076 9.6812C11.7456 8.67354 12.1873 7.43544 12.1873 6.0934C12.1873 2.73304 9.4535 -0.00072 6.09351 -0.00072C2.73353 -0.00072 -0.00024 2.73304 -0.00024 6.0934C-0.00024 9.4531 2.73353 12.1869 6.09351 12.1869C7.43568 12.1869 8.67393 11.7451 9.68193 11.0073L13.6741 14.9996L14.9998 13.6733L11.0076 9.6812V9.6812ZM6.09351 10.3116C3.76716 10.3116 1.87476 8.41942 1.87476 6.0934C1.87476 3.76653 3.76716 1.87408 6.09351 1.87408C8.41988 1.87408 10.3123 3.76653 10.3123 6.0934C10.3123 8.41942 8.41988 10.3116 6.09351 10.3116V10.3116Z" fill="white"/>
</svg>
