<?xml version="1.0" encoding="UTF-8"?>
<svg xmlns="http://www.w3.org/2000/svg" xmlns:xlink="http://www.w3.org/1999/xlink" width="19px" height="19px" viewBox="0 0 19 19" version="1.1">
<g id="surface1">
<path style=" stroke:none;fill-rule:nonzero;fill:rgb(0%,0%,0%);fill-opacity:1;" d="M 17.046875 5.628906 C 17.058594 5.800781 17.058594 5.96875 17.058594 6.136719 C 17.058594 11.285156 13.140625 17.214844 5.980469 17.214844 C 3.773438 17.214844 1.722656 16.578125 0 15.46875 C 0.3125 15.503906 0.613281 15.515625 0.941406 15.515625 C 2.761719 15.515625 4.4375 14.902344 5.773438 13.851562 C 4.0625 13.816406 2.628906 12.695312 2.132812 11.152344 C 2.375 11.1875 2.617188 11.210938 2.871094 11.210938 C 3.21875 11.210938 3.570312 11.164062 3.894531 11.078125 C 2.109375 10.71875 0.773438 9.152344 0.773438 7.257812 L 0.773438 7.210938 C 1.289062 7.5 1.894531 7.679688 2.53125 7.703125 C 1.484375 7.003906 0.796875 5.8125 0.796875 4.460938 C 0.796875 3.738281 0.988281 3.074219 1.324219 2.496094 C 3.242188 4.859375 6.125 6.402344 9.355469 6.570312 C 9.296875 6.28125 9.257812 5.980469 9.257812 5.679688 C 9.257812 3.53125 10.996094 1.785156 13.152344 1.785156 C 14.273438 1.785156 15.285156 2.253906 15.996094 3.015625 C 16.878906 2.84375 17.722656 2.519531 18.46875 2.074219 C 18.179688 2.976562 17.566406 3.738281 16.757812 4.21875 C 17.542969 4.136719 18.300781 3.917969 19 3.617188 C 18.46875 4.386719 17.804688 5.074219 17.046875 5.628906 Z M 17.046875 5.628906 "/>
</g>
</svg>
